# xmcd
# Copyright (C) 1995-1998 Ti Kan
#
# Track frame offsets:
#       150
#       19883
#       35053
#       59608
#       75812
#       97194
#       114828
#       130563
#       147853
#       163481
#       176354
#       196937
#       215607
#
# Disc length: 3072 seconds
#
# Revision: 12
# Processed by: cddbd v1.5.1PL0 Copyright (c) Steve Scherf et al.
# Submitted via: CD-Transfer v1.0
#
DISCID=b10bfe0d
DTITLE=Wiley - Euroexpress 577
DYEAR=04
DGENRE=
TTITLE0=Never Really Was
TTITLE1=That Girl
TTITLE2=I'm In Heaven
TTITLE3=I Don't Think We've Met (Radio Edit)
TTITLE4=Mary
TTITLE5=Get It Together (Radio Mix)
TTITLE6=Nothing I Won't Do
TTITLE7=Caught In A Moment
TTITLE8=Meant To Live
TTITLE9=Dumb
TTITLE10=Fall To Pieces (Album Vers.)
TTITLE11=Black Out Riddim Medley
TTITLE12=Take Chances
EXTD=
EXTT0=
EXTT1=
EXTT2=
EXTT3=
EXTT4=
EXTT5=
EXTT6=
EXTT7=
EXTT8=
EXTT9=
EXTT10=
EXTT11=
EXTT12=
PLAYORDER=
